<svg width="39" height="39" viewBox="0 0 39 39" fill="none" xmlns="http://www.w3.org/2000/svg">
<path d="M19.5 39C30.2696 39 39 30.2696 39 19.5C39 8.73045 30.2696 0 19.5 0C8.73045 0 0 8.73045 0 19.5C0 30.2696 8.73045 39 19.5 39Z" fill="#59253E"/>
<path d="M24.0114 8.33838H14.9885C11.3216 8.33838 8.33838 11.3216 8.33838 14.9885V24.0114C8.33838 27.6782 11.3216 30.6616 14.9886 30.6616H24.0115C27.6783 30.6616 30.6617 27.6783 30.6617 24.0114V14.9885C30.6616 11.3216 27.6783 8.33838 24.0114 8.33838ZM28.4159 24.0115C28.4159 26.444 26.444 28.4159 24.0115 28.4159H14.9886C12.5561 28.4159 10.5842 26.444 10.5842 24.0115V14.9886C10.5842 12.5561 12.5561 10.5841 14.9886 10.5841H24.0115C26.444 10.5841 28.4159 12.5562 28.4159 14.9886V24.0115Z" fill="white"/>
<path d="M19.5 13.7263C16.3165 13.7263 13.7263 16.3165 13.7263 19.5C13.7263 22.6833 16.3165 25.2734 19.5 25.2734C22.6835 25.2734 25.2734 22.6835 25.2734 19.5C25.2734 16.3165 22.6835 13.7263 19.5 13.7263ZM19.5 23.0277C17.5516 23.0277 15.972 21.4485 15.972 19.5C15.972 17.5515 17.5516 15.972 19.5 15.972C21.4484 15.972 23.0277 17.5514 23.0277 19.5C23.0277 21.4484 21.4484 23.0277 19.5 23.0277Z" fill="white"/>
<path d="M26.668 13.77C26.668 14.534 26.0486 15.1535 25.2845 15.1535C24.5205 15.1535 23.901 14.534 23.901 13.77C23.901 13.0059 24.5205 12.3865 25.2845 12.3865C26.0487 12.3865 26.668 13.0058 26.668 13.77Z" fill="#D1D1D1"/>
</svg>
