<svg width="106" height="56" viewBox="0 0 106 56" fill="none" xmlns="http://www.w3.org/2000/svg">
<rect x="0.5" y="0.5" width="105" height="55" fill="#1F1C26" stroke="#BDBCBF"/>
<path d="M26.448 21.768L23.52 33H20.208L18.416 25.608L16.56 33H13.248L10.4 21.768H13.328L14.944 29.944L16.944 21.768H19.952L21.872 29.944L23.504 21.768H26.448ZM33.1321 33.112C32.0761 33.112 31.1055 32.8667 30.2201 32.376C29.3455 31.8853 28.6468 31.2027 28.1241 30.328C27.6121 29.4427 27.3561 28.4507 27.3561 27.352C27.3561 26.2533 27.6121 25.2667 28.1241 24.392C28.6468 23.5173 29.3455 22.8347 30.2201 22.344C31.1055 21.8533 32.0761 21.608 33.1321 21.608C34.1881 21.608 35.1535 21.8533 36.0281 22.344C36.9135 22.8347 37.6068 23.5173 38.1081 24.392C38.6201 25.2667 38.8761 26.2533 38.8761 27.352C38.8761 28.4507 38.6201 29.4427 38.1081 30.328C37.5961 31.2027 36.9028 31.8853 36.0281 32.376C35.1535 32.8667 34.1881 33.112 33.1321 33.112ZM33.1321 30.616C34.0281 30.616 34.7428 30.3173 35.2761 29.72C35.8201 29.1227 36.0921 28.3333 36.0921 27.352C36.0921 26.36 35.8201 25.5707 35.2761 24.984C34.7428 24.3867 34.0281 24.088 33.1321 24.088C32.2255 24.088 31.5001 24.3813 30.9561 24.968C30.4228 25.5547 30.1561 26.3493 30.1561 27.352C30.1561 28.344 30.4228 29.1387 30.9561 29.736C31.5001 30.3227 32.2255 30.616 33.1321 30.616ZM46.1263 33L43.7903 28.76H43.1343V33H40.3983V21.768H44.9903C45.8756 21.768 46.6276 21.9227 47.2463 22.232C47.8756 22.5413 48.3449 22.968 48.6543 23.512C48.9636 24.0453 49.1183 24.6427 49.1183 25.304C49.1183 26.0507 48.9049 26.7173 48.4783 27.304C48.0623 27.8907 47.4436 28.3067 46.6223 28.552L49.2143 33H46.1263ZM43.1343 26.824H44.8303C45.3316 26.824 45.7049 26.7013 45.9503 26.456C46.2063 26.2107 46.3343 25.864 46.3343 25.416C46.3343 24.9893 46.2063 24.6533 45.9503 24.408C45.7049 24.1627 45.3316 24.04 44.8303 24.04H43.1343V26.824ZM57.3478 33L53.5718 28.04V33H50.8358V21.768H53.5718V26.696L57.3158 21.768H60.5318L56.1798 27.272L60.6918 33H57.3478Z" fill="#D9D9D9"/>
<path d="M67.304 33.112C66.248 33.112 65.2773 32.8667 64.392 32.376C63.5173 31.8853 62.8187 31.2027 62.296 30.328C61.784 29.4427 61.528 28.4507 61.528 27.352C61.528 26.2533 61.784 25.2667 62.296 24.392C62.8187 23.5173 63.5173 22.8347 64.392 22.344C65.2773 21.8533 66.248 21.608 67.304 21.608C68.36 21.608 69.3253 21.8533 70.2 22.344C71.0853 22.8347 71.7787 23.5173 72.28 24.392C72.792 25.2667 73.048 26.2533 73.048 27.352C73.048 28.4507 72.792 29.4427 72.28 30.328C71.768 31.2027 71.0747 31.8853 70.2 32.376C69.3253 32.8667 68.36 33.112 67.304 33.112ZM67.304 30.616C68.2 30.616 68.9147 30.3173 69.448 29.72C69.992 29.1227 70.264 28.3333 70.264 27.352C70.264 26.36 69.992 25.5707 69.448 24.984C68.9147 24.3867 68.2 24.088 67.304 24.088C66.3973 24.088 65.672 24.3813 65.128 24.968C64.5947 25.5547 64.328 26.3493 64.328 27.352C64.328 28.344 64.5947 29.1387 65.128 29.736C65.672 30.3227 66.3973 30.616 67.304 30.616ZM77.2581 21.768V28.488C77.2581 29.16 77.4235 29.6773 77.7541 30.04C78.0848 30.4027 78.5701 30.584 79.2101 30.584C79.8501 30.584 80.3408 30.4027 80.6821 30.04C81.0235 29.6773 81.1941 29.16 81.1941 28.488V21.768H83.9301V28.472C83.9301 29.4747 83.7168 30.3227 83.2901 31.016C82.8635 31.7093 82.2875 32.232 81.5621 32.584C80.8475 32.936 80.0475 33.112 79.1621 33.112C78.2768 33.112 77.4821 32.9413 76.7781 32.6C76.0848 32.248 75.5355 31.7253 75.1301 31.032C74.7248 30.328 74.5221 29.4747 74.5221 28.472V21.768H77.2581ZM93.9314 21.768V23.96H90.9554V33H88.2194V23.96H85.2434V21.768H93.9314Z" fill="#F24B88"/>
<path d="M13.982 39.487C14.1593 39.515 14.3203 39.5873 14.465 39.704C14.6143 39.8207 14.731 39.9653 14.815 40.138C14.9037 40.3107 14.948 40.495 14.948 40.691C14.948 40.9383 14.885 41.1623 14.759 41.363C14.633 41.559 14.4487 41.7153 14.206 41.832C13.968 41.944 13.6857 42 13.359 42H11.539V37.121H13.289C13.6203 37.121 13.9027 37.177 14.136 37.289C14.3693 37.3963 14.5443 37.5433 14.661 37.73C14.7777 37.9167 14.836 38.1267 14.836 38.36C14.836 38.6493 14.7567 38.8897 14.598 39.081C14.444 39.2677 14.2387 39.403 13.982 39.487ZM12.176 39.228H13.247C13.5457 39.228 13.7767 39.158 13.94 39.018C14.1033 38.878 14.185 38.6843 14.185 38.437C14.185 38.1897 14.1033 37.996 13.94 37.856C13.7767 37.716 13.541 37.646 13.233 37.646H12.176V39.228ZM13.303 41.475C13.6203 41.475 13.8677 41.4003 14.045 41.251C14.2223 41.1017 14.311 40.894 14.311 40.628C14.311 40.3573 14.2177 40.145 14.031 39.991C13.8443 39.8323 13.5947 39.753 13.282 39.753H12.176V41.475H13.303ZM17.379 37.639V39.27H19.157V39.795H17.379V41.475H19.367V42H16.742V37.114H19.367V37.639H17.379ZM21.8778 41.482H23.5858V42H21.2408V37.121H21.8778V41.482ZM25.8093 37.121V42H25.1723V37.121H25.8093ZM28.442 37.639V39.27H30.22V39.795H28.442V41.475H30.43V42H27.805V37.114H30.43V37.639H28.442ZM36.3358 37.121L34.4948 42H33.7598L31.9188 37.121H32.5978L34.1308 41.328L35.6638 37.121H36.3358ZM38.5813 37.639V39.27H40.3593V39.795H38.5813V41.475H40.5693V42H37.9443V37.114H40.5693V37.639H38.5813ZM45.8564 37.121V42H45.2194V37.121H45.8564ZM51.688 42H51.051L48.489 38.115V42H47.852V37.114H48.489L51.051 40.992V37.114H51.688V42ZM59.8761 37.121L58.2871 40.159V42H57.6501V40.159L56.0541 37.121H56.7611L57.9651 39.592L59.1691 37.121H59.8761ZM63.67 42.049C63.2174 42.049 62.8044 41.944 62.431 41.734C62.0577 41.5193 61.7614 41.223 61.542 40.845C61.3274 40.4623 61.22 40.033 61.22 39.557C61.22 39.081 61.3274 38.654 61.542 38.276C61.7614 37.8933 62.0577 37.597 62.431 37.387C62.8044 37.1723 63.2174 37.065 63.67 37.065C64.1274 37.065 64.5427 37.1723 64.916 37.387C65.2894 37.597 65.5834 37.891 65.798 38.269C66.0127 38.647 66.12 39.0763 66.12 39.557C66.12 40.0377 66.0127 40.467 65.798 40.845C65.5834 41.223 65.2894 41.5193 64.916 41.734C64.5427 41.944 64.1274 42.049 63.67 42.049ZM63.67 41.496C64.0107 41.496 64.3164 41.4167 64.587 41.258C64.8624 41.0993 65.077 40.873 65.231 40.579C65.3897 40.285 65.469 39.9443 65.469 39.557C65.469 39.165 65.3897 38.8243 65.231 38.535C65.077 38.241 64.8647 38.0147 64.594 37.856C64.3234 37.6973 64.0154 37.618 63.67 37.618C63.3247 37.618 63.0167 37.6973 62.746 37.856C62.4754 38.0147 62.2607 38.241 62.102 38.535C61.948 38.8243 61.871 39.165 61.871 39.557C61.871 39.9443 61.948 40.285 62.102 40.579C62.2607 40.873 62.4754 41.0993 62.746 41.258C63.0214 41.4167 63.3294 41.496 63.67 41.496ZM68.494 37.121V40.208C68.494 40.642 68.599 40.964 68.809 41.174C69.0236 41.384 69.32 41.489 69.698 41.489C70.0713 41.489 70.363 41.384 70.573 41.174C70.7876 40.964 70.895 40.642 70.895 40.208V37.121H71.532V40.201C71.532 40.607 71.4503 40.95 71.287 41.23C71.1236 41.5053 70.902 41.7107 70.622 41.846C70.3466 41.9813 70.0363 42.049 69.691 42.049C69.3456 42.049 69.033 41.9813 68.753 41.846C68.4776 41.7107 68.2583 41.5053 68.095 41.23C67.9363 40.95 67.857 40.607 67.857 40.201V37.121H68.494ZM76.0736 42L74.9116 40.005H74.1416V42H73.5046V37.121H75.0796C75.4483 37.121 75.7586 37.184 76.0106 37.31C76.2673 37.436 76.4586 37.6063 76.5846 37.821C76.7106 38.0357 76.7736 38.2807 76.7736 38.556C76.7736 38.892 76.6756 39.1883 76.4796 39.445C76.2883 39.7017 75.9989 39.872 75.6116 39.956L76.8366 42H76.0736ZM74.1416 39.494H75.0796C75.4249 39.494 75.6839 39.41 75.8566 39.242C76.0293 39.0693 76.1156 38.8407 76.1156 38.556C76.1156 38.2667 76.0293 38.0427 75.8566 37.884C75.6886 37.7253 75.4296 37.646 75.0796 37.646H74.1416V39.494ZM80.2204 42.049C79.8984 42.049 79.609 41.993 79.3524 41.881C79.1004 41.7643 78.902 41.6057 78.7574 41.405C78.6127 41.1997 78.538 40.964 78.5334 40.698H79.2124C79.2357 40.9267 79.329 41.1203 79.4924 41.279C79.6604 41.433 79.903 41.51 80.2204 41.51C80.5237 41.51 80.7617 41.4353 80.9344 41.286C81.1117 41.132 81.2004 40.936 81.2004 40.698C81.2004 40.5113 81.149 40.3597 81.0464 40.243C80.9437 40.1263 80.8154 40.0377 80.6614 39.977C80.5074 39.9163 80.2997 39.851 80.0384 39.781C79.7164 39.697 79.4574 39.613 79.2614 39.529C79.07 39.445 78.9044 39.3143 78.7644 39.137C78.629 38.955 78.5614 38.7123 78.5614 38.409C78.5614 38.143 78.629 37.9073 78.7644 37.702C78.8997 37.4967 79.0887 37.338 79.3314 37.226C79.5787 37.114 79.861 37.058 80.1784 37.058C80.6357 37.058 81.009 37.1723 81.2984 37.401C81.5924 37.6297 81.758 37.933 81.7954 38.311H81.0954C81.072 38.1243 80.974 37.961 80.8014 37.821C80.6287 37.6763 80.4 37.604 80.1154 37.604C79.8494 37.604 79.6324 37.674 79.4644 37.814C79.2964 37.9493 79.2124 38.1407 79.2124 38.388C79.2124 38.5653 79.2614 38.71 79.3594 38.822C79.462 38.934 79.5857 39.0203 79.7304 39.081C79.8797 39.137 80.0874 39.2023 80.3534 39.277C80.6754 39.3657 80.9344 39.4543 81.1304 39.543C81.3264 39.627 81.4944 39.76 81.6344 39.942C81.7744 40.1193 81.8444 40.362 81.8444 40.67C81.8444 40.908 81.7814 41.132 81.6554 41.342C81.5294 41.552 81.3427 41.7223 81.0954 41.853C80.848 41.9837 80.5564 42.049 80.2204 42.049ZM84.3288 37.639V39.27H86.1068V39.795H84.3288V41.475H86.3168V42H83.6918V37.114H86.3168V37.639H84.3288ZM88.8276 41.482H90.5356V42H88.1906V37.121H88.8276V41.482ZM94.8801 37.121V37.639H92.7591V39.284H94.4811V39.802H92.7591V42H92.1221V37.121H94.8801Z" fill="white"/>
</svg>
