<svg width="39" height="39" viewBox="0 0 39 39" fill="none" xmlns="http://www.w3.org/2000/svg">
<path d="M19.5002 38.9997C30.2696 38.9997 39 30.2693 39 19.4998C39 8.73037 30.2696 0 19.5002 0C8.73074 0 0.000366211 8.73037 0.000366211 19.4998C0.000366211 30.2693 8.73074 38.9997 19.5002 38.9997Z" fill="#59253E"/>
<path d="M31.4446 14.0139C30.6089 14.3844 29.71 14.635 28.7673 14.7469C29.7299 14.1703 30.4685 13.2578 30.8172 12.1688C29.9165 12.703 28.9186 13.0906 27.8573 13.2995C27.0071 12.394 25.7957 11.8281 24.4543 11.8281C21.8806 11.8281 19.7933 13.9155 19.7933 16.4891C19.7933 16.8545 19.8346 17.2101 19.9146 17.5514C16.0409 17.3571 12.6062 15.5016 10.3072 12.6808C9.90606 13.369 9.67595 14.1703 9.67595 15.0243C9.67595 16.641 10.4994 18.0683 11.7494 18.9039C10.9857 18.8799 10.2665 18.6703 9.63841 18.3203C9.63806 18.3401 9.63806 18.3599 9.63806 18.3794C9.63806 20.6378 11.2454 22.5214 13.3772 22.9493C12.9865 23.0564 12.5739 23.1131 12.1495 23.1131C11.8485 23.1131 11.5568 23.0842 11.2725 23.03C11.8655 24.8813 13.5865 26.229 15.6266 26.2669C14.0311 27.5172 12.0216 28.2621 9.83724 28.2621C9.46183 28.2621 9.08989 28.2402 8.72595 28.1967C10.7876 29.5197 13.2382 30.2911 15.8702 30.2911C24.4435 30.2911 29.132 23.1888 29.132 17.029C29.132 16.827 29.1275 16.6257 29.1184 16.4262C30.0298 15.7692 30.8199 14.9486 31.4446 14.0139Z" fill="#F1F2F2"/>
</svg>
