<svg width="39" height="39" viewBox="0 0 39 39" fill="none" xmlns="http://www.w3.org/2000/svg">
<rect width="39" height="39" rx="19.5" fill="#D9D9D9"/>
<path d="M19.5 0C8.73037 0 0 8.73037 0 19.5C0 30.2696 8.73037 39 19.5 39C30.2696 39 39 30.2696 39 19.5C39 8.73037 30.2696 0 19.5 0ZM19.6967 29.7752C18.2236 29.7752 16.821 29.4778 15.5453 28.9405C14.8978 28.6677 14.1763 28.5822 13.5067 28.795L13.2767 28.8681C11.3657 29.4755 9.57608 27.6513 10.22 25.7522V25.7522C10.4525 25.0667 10.354 24.3202 10.0468 23.6647C9.41402 22.3142 9.06057 20.8085 9.06057 19.2209C9.06013 13.3917 13.8225 8.66667 19.6967 8.66667C25.5723 8.66667 30.3333 13.3917 30.3333 19.2209C30.3333 25.0501 25.5719 29.7752 19.6967 29.7752Z" fill="#59253E"/>
<path d="M19.6967 10.3474C14.7654 10.3474 10.754 14.328 10.754 19.2208C10.754 20.9043 11.2299 22.4797 12.0541 23.8224C12.2915 24.2092 12.3707 24.6792 12.225 25.109V25.109C11.8583 26.1909 12.8779 27.2301 13.9666 26.8841L14.1103 26.8384C14.5322 26.7043 14.9885 26.7739 15.3763 26.9873C16.6575 27.6921 18.131 28.0941 19.6972 28.0941C24.6276 28.0941 28.6399 24.114 28.6399 19.2212C28.6399 14.3284 24.6281 10.3474 19.6967 10.3474ZM24.9162 22.882C24.6983 23.4856 23.6336 24.0685 23.156 24.1114C22.6781 24.1547 22.6781 24.5001 20.0269 23.4648C17.3762 22.4287 15.7036 19.7317 15.5731 19.5592C15.4423 19.3867 14.5084 18.1569 14.5084 16.8838C14.5084 15.6111 15.1818 14.9849 15.4206 14.7262C15.6598 14.4675 15.9423 14.4025 16.1161 14.4025C16.2899 14.4025 16.4641 14.4242 16.6157 14.4242C16.7683 14.4242 16.9849 14.338 17.202 14.8558C17.4191 15.3741 17.9413 16.6468 18.0063 16.7763C18.0717 16.9059 18.1155 17.0571 18.028 17.2296C17.9417 17.4025 17.8984 17.51 17.7675 17.6612C17.6371 17.812 17.4937 17.9983 17.3762 18.1145C17.2458 18.2432 17.1102 18.3831 17.2618 18.6418C17.4139 18.901 17.9374 19.7477 18.7122 20.4332C19.708 21.3142 20.5482 21.5876 20.8087 21.7172C21.0695 21.8468 21.2216 21.8251 21.3737 21.6518C21.5263 21.4793 22.0259 20.8969 22.1997 20.6378C22.3734 20.3791 22.5476 20.4224 22.7864 20.5086C23.0247 20.5944 24.307 21.2206 24.5678 21.3502C24.8283 21.4793 25.002 21.5443 25.0675 21.6522C25.1329 21.7592 25.1329 22.2771 24.9162 22.882Z" fill="#59253E"/>
</svg>
